<svg width="165" height="167" xmlns="http://www.w3.org/2000/svg" xmlns:xlink="http://www.w3.org/1999/xlink" xml:space="preserve" overflow="hidden"><g transform="translate(-108 -205)"><g><g><g><g><path d="M270.25 288.5C270.25 332.545 234.545 368.25 190.5 368.25 146.455 368.25 110.75 332.545 110.75 288.5 110.75 244.455 146.455 208.75 190.5 208.75 234.545 208.75 270.25 244.455 270.25 288.5Z" fill="#755941" fill-rule="nonzero" fill-opacity="1"/><path d="M259.25 288.5C259.25 326.47 228.47 357.25 190.5 357.25 152.53 357.25 121.75 326.47 121.75 288.5 121.75 250.53 152.53 219.75 190.5 219.75 228.47 219.75 259.25 250.53 259.25 288.5Z" fill="#FFF6F0" fill-rule="nonzero" fill-opacity="1"/><path d="M206.092 304.092C205.481 304.703 204.764 305.197 203.975 305.55L155.768 326.753C154.421 327.35 152.845 326.742 152.247 325.396 151.942 324.707 151.942 323.921 152.247 323.233L173.45 275.025C173.803 274.236 174.297 273.519 174.908 272.908L179.5 274.75 204.25 299.5Z" fill="#755941" fill-rule="nonzero" fill-opacity="1"/><path d="M228.753 253.768 207.55 301.975C207.197 302.764 206.703 303.481 206.092 304.092L174.908 272.908C175.519 272.297 176.236 271.803 177.025 271.45L225.232 250.247C226.579 249.65 228.155 250.258 228.753 251.604 229.058 252.293 229.058 253.079 228.753 253.768Z" fill="#38ABAB" fill-rule="nonzero" fill-opacity="1"/><path d="M198.75 288.5C198.75 293.056 195.056 296.75 190.5 296.75 185.944 296.75 182.25 293.056 182.25 288.5 182.25 283.944 185.944 280.25 190.5 280.25 195.056 280.25 198.75 283.944 198.75 288.5Z" fill="#FFF6F0" fill-rule="nonzero" fill-opacity="1"/><path d="M190.5 360C151.012 360 119 327.988 119 288.5 119 249.012 151.012 217 190.5 217 229.988 217 262 249.012 262 288.5 261.956 327.97 229.97 359.956 190.5 360ZM190.5 222.5C154.049 222.5 124.5 252.049 124.5 288.5 124.5 324.951 154.049 354.5 190.5 354.5 226.951 354.5 256.5 324.951 256.5 288.5 256.458 252.067 226.933 222.542 190.5 222.5Z" fill="#583111" fill-rule="nonzero" fill-opacity="1"/><path d="M190.5 244.5C188.981 244.5 187.75 243.269 187.75 241.75L187.75 230.75C187.75 229.231 188.981 228 190.5 228 192.019 228 193.25 229.231 193.25 230.75L193.25 241.75C193.25 243.269 192.019 244.5 190.5 244.5ZM143.75 291.25 132.75 291.25C131.231 291.25 130 290.019 130 288.5 130 286.981 131.231 285.75 132.75 285.75L143.75 285.75C145.269 285.75 146.5 286.981 146.5 288.5 146.5 290.019 145.269 291.25 143.75 291.25ZM190.5 349C188.981 349 187.75 347.769 187.75 346.25L187.75 335.25C187.75 333.731 188.981 332.5 190.5 332.5 192.019 332.5 193.25 333.731 193.25 335.25L193.25 346.25C193.25 347.769 192.019 349 190.5 349ZM248.25 291.25 237.25 291.25C235.731 291.25 234.5 290.019 234.5 288.5 234.5 286.981 235.731 285.75 237.25 285.75L248.25 285.75C249.769 285.75 251 286.981 251 288.5 251 290.019 249.769 291.25 248.25 291.25Z" fill="#555352" fill-rule="nonzero" fill-opacity="1"/></g></g></g></g></g></svg>